<?xml version="1.0" standalone="no"?>
<!DOCTYPE svg PUBLIC "-//W3C//DTD SVG 20010904//EN"
 "http://www.w3.org/TR/2001/REC-SVG-20010904/DTD/svg10.dtd">
<svg version="1.0" xmlns="http://www.w3.org/2000/svg"
 width="24.000000pt" height="24.000000pt" viewBox="0 0 24.000000 24.000000"
 preserveAspectRatio="xMidYMid meet">

<g transform="translate(0.000000,24.000000) scale(0.100000,-0.100000)"
fill="#000000" stroke="none">
<path d="M40 120 c0 -73 3 -90 15 -90 10 0 15 11 15 35 0 19 2 35 5 35 3 0 27
-13 53 -30 27 -16 54 -30 61 -30 7 0 11 27 11 80 0 53 -4 80 -11 80 -7 0 -34
-13 -61 -30 -26 -16 -50 -30 -53 -30 -3 0 -5 16 -5 35 0 24 -5 35 -15 35 -12
0 -15 -17 -15 -90z"/>
</g>
</svg>
